<?xml version="1.0" standalone="no"?>
<!DOCTYPE svg PUBLIC "-//W3C//DTD SVG 20010904//EN"
 "http://www.w3.org/TR/2001/REC-SVG-20010904/DTD/svg10.dtd">
<svg version="1.0" xmlns="http://www.w3.org/2000/svg"
 width="64.000000pt" height="64.000000pt" viewBox="0 0 64.000000 64.000000"
 preserveAspectRatio="xMidYMid meet">

<g transform="translate(0.000000,64.000000) scale(0.100000,-0.100000)"
fill="#000000" stroke="none">
<path d="M150 495 l0 -45 68 -1 67 -2 -72 -7 c-68 -8 -179 -37 -170 -46 2 -3
24 0 48 5 74 17 179 13 228 -9 24 -11 78 -54 120 -95 67 -65 163 -126 177
-112 3 2 -9 10 -25 16 -16 7 -68 53 -116 102 l-87 90 36 74 35 75 -154 0 -155
0 0 -45z"/>
<path d="M174 206 c-24 -51 -44 -96 -44 -100 0 -12 308 -7 316 6 5 7 -8 25
-31 45 -29 25 -48 33 -77 33 -39 0 -39 1 -33 29 5 26 2 33 -32 55 -21 14 -41
26 -46 26 -5 0 -28 -42 -53 -94z"/>
</g>
</svg>
